<svg width="300" height="300" viewBox="0 0 300 300" fill="#D3D3D3" xmlns="http://www.w3.org/2000/svg">
<g clip-path="url(#clip0)">
<path d="M-26.6667 6.66671H26.6666V-6.66663H-26.6667V6.66671ZM-13.3334 -1.66663H9.99998V1.66671H-13.3334V-1.66663ZM-20 -1.66663H-16.6667V1.66671H-20V-1.66663Z" fill="#D3D3D3"/>
<path d="M-26.6667 20C-26.6667 20.8841 -26.3155 21.7319 -25.6904 22.357C-25.0653 22.9821 -24.2174 23.3333 -23.3334 23.3333H23.3333C24.2174 23.3333 25.0652 22.9821 25.6903 22.357C26.3155 21.7319 26.6666 20.8841 26.6666 20V10H-26.6667V20ZM-13.3334 15H9.99998V18.3333H-13.3334V15ZM-20 15H-16.6667V18.3333H-20V15Z" fill="#D3D3D3"/>
<path d="M273.333 6.66671H326.667V-6.66663H273.333V6.66671ZM286.667 -1.66663H310V1.66671H286.667V-1.66663ZM280 -1.66663H283.333V1.66671H280V-1.66663Z" fill="#D3D3D3"/>
<path d="M273.333 20C273.333 20.8841 273.685 21.7319 274.31 22.357C274.935 22.9821 275.783 23.3333 276.667 23.3333H323.333C324.217 23.3333 325.065 22.9821 325.69 22.357C326.315 21.7319 326.667 20.8841 326.667 20V10H273.333V20ZM286.667 15H310V18.3333H286.667V15ZM280 15H283.333V18.3333H280V15Z" fill="#D3D3D3"/>
<path d="M273.333 306.667H326.667V293.333H273.333V306.667ZM286.667 298.333H310V301.667H286.667V298.333ZM280 298.333H283.333V301.667H280V298.333Z" fill="#D3D3D3"/>
<path d="M323.333 276.667H276.667C275.783 276.667 274.935 277.018 274.31 277.643C273.685 278.268 273.333 279.116 273.333 280V290H326.667V280C326.667 279.116 326.315 278.268 325.69 277.643C325.065 277.018 324.217 276.667 323.333 276.667ZM283.333 285H280V281.667H283.333V285ZM310 285H286.667V281.667H310V285Z" fill="#D3D3D3"/>
<path d="M-26.6667 306.667H26.6666V293.333H-26.6667V306.667ZM-13.3334 298.333H9.99998V301.667H-13.3334V298.333ZM-20 298.333H-16.6667V301.667H-20V298.333Z" fill="#D3D3D3"/>
<path d="M23.3333 276.667H-23.3334C-24.2174 276.667 -25.0653 277.018 -25.6904 277.643C-26.3155 278.268 -26.6667 279.116 -26.6667 280V290H26.6666V280C26.6666 279.116 26.3155 278.268 25.6903 277.643C25.0652 277.018 24.2174 276.667 23.3333 276.667ZM-16.6667 285H-20V281.667H-16.6667V285ZM9.99998 285H-13.3334V281.667H9.99998V285Z" fill="#D3D3D3"/>
<path fill-rule="evenodd" clip-rule="evenodd" d="M91.8125 205.75H116.188L117.125 206.688V218.875H115.25V213.25H92.75V226.375H105.875V228.25H91.8125L90.875 227.312V206.688L91.8125 205.75ZM92.75 211.375H115.25V207.625H92.75V211.375ZM102.125 224.5V222.449C101.806 222.333 101.509 222.165 101.246 221.952L99.4738 222.963L98.5363 221.35L100.293 220.324C100.233 219.985 100.233 219.638 100.293 219.299L98.5363 218.275L99.4738 216.663L101.246 217.675C101.529 217.45 101.823 217.283 102.125 217.176V215.125H104V217.176C104.321 217.287 104.619 217.455 104.879 217.673L106.651 216.663L107.589 218.275L105.832 219.301C105.892 219.639 105.892 219.986 105.832 220.324L107.589 221.35L106.651 222.963L104.879 221.95C104.613 222.159 104.316 222.327 104 222.449V224.5H102.125ZM101.656 219.812C101.656 220.203 101.793 220.534 102.067 220.808C102.196 220.941 102.351 221.046 102.522 221.117C102.693 221.187 102.877 221.222 103.062 221.219C103.248 221.222 103.432 221.187 103.603 221.117C103.774 221.046 103.929 220.941 104.058 220.808C104.191 220.679 104.296 220.524 104.367 220.353C104.437 220.182 104.472 219.998 104.469 219.812C104.472 219.627 104.437 219.443 104.367 219.272C104.296 219.101 104.191 218.946 104.058 218.817C103.929 218.684 103.774 218.579 103.603 218.508C103.432 218.438 103.248 218.403 103.062 218.406C102.877 218.403 102.693 218.438 102.522 218.508C102.351 218.579 102.196 218.684 102.067 218.817C101.934 218.946 101.829 219.101 101.758 219.272C101.688 219.443 101.653 219.627 101.656 219.812ZM111.657 230.125V228.074C111.339 227.958 111.042 227.79 110.778 227.577L109.006 228.588L108.069 226.975L109.827 225.949C109.768 225.61 109.768 225.263 109.827 224.924L108.069 223.9L109.006 222.287L110.778 223.3C111.061 223.075 111.356 222.908 111.659 222.801V220.75H113.534V222.801C113.855 222.912 114.152 223.081 114.412 223.298L116.184 222.287L117.121 223.9L115.364 224.926C115.424 225.264 115.424 225.611 115.364 225.949L117.121 226.975L116.184 228.588L114.412 227.575C114.145 227.784 113.849 227.952 113.532 228.074V230.125H111.657ZM111.189 225.438C111.189 225.827 111.326 226.159 111.599 226.433C111.728 226.566 111.883 226.671 112.055 226.742C112.226 226.812 112.41 226.847 112.595 226.844C112.78 226.847 112.964 226.812 113.135 226.742C113.307 226.671 113.462 226.566 113.591 226.433C113.724 226.304 113.829 226.149 113.9 225.978C113.971 225.807 114.006 225.623 114.003 225.438C114.006 225.252 113.971 225.068 113.9 224.897C113.829 224.726 113.724 224.571 113.591 224.442C113.462 224.309 113.307 224.204 113.136 224.134C112.965 224.063 112.782 224.028 112.597 224.031C112.411 224.028 112.227 224.062 112.056 224.133C111.884 224.204 111.729 224.309 111.599 224.442C111.467 224.571 111.362 224.726 111.291 224.897C111.22 225.068 111.186 225.252 111.189 225.438Z" fill="#D3D3D3"/>
<path d="M40.375 118.777H21.625C21.4102 118.777 21.2344 118.953 21.2344 119.168V138.797C21.2344 139.012 21.4102 139.188 21.625 139.188H40.375C40.5898 139.188 40.7656 139.012 40.7656 138.797V119.168C40.7656 118.953 40.5898 118.777 40.375 118.777ZM24.3594 121.902H37.6406V127.615H24.3594V121.902ZM37.6406 136.062H24.3594V130.35H37.6406V136.062Z" fill="#D3D3D3"/>
<path d="M26.7031 133.523C26.7031 133.938 26.8677 134.335 27.1608 134.628C27.4538 134.921 27.8512 135.086 28.2656 135.086C28.68 135.086 29.0775 134.921 29.3705 134.628C29.6635 134.335 29.8281 133.938 29.8281 133.523C29.8281 133.109 29.6635 132.712 29.3705 132.419C29.0775 132.126 28.68 131.961 28.2656 131.961C27.8512 131.961 27.4538 132.126 27.1608 132.419C26.8677 132.712 26.7031 133.109 26.7031 133.523ZM26.7031 124.832C26.7031 125.246 26.8677 125.644 27.1608 125.937C27.4538 126.23 27.8512 126.395 28.2656 126.395C28.68 126.395 29.0775 126.23 29.3705 125.937C29.6635 125.644 29.8281 125.246 29.8281 124.832C29.8281 124.418 29.6635 124.02 29.3705 123.727C29.0775 123.434 28.68 123.27 28.2656 123.27C27.8512 123.27 27.4538 123.434 27.1608 123.727C26.8677 124.02 26.7031 124.418 26.7031 124.832Z" fill="#D3D3D3"/>
<path d="M45.6192 115.013C43.3828 109.109 37.6846 104.91 31.0098 104.91C24.335 104.91 18.6367 109.104 16.4004 115.008C12.1963 116.116 9.10061 119.959 9.12502 124.52C9.15432 129.617 13.1094 133.763 18.0899 134.207C18.3194 134.227 18.5147 134.046 18.5147 133.816V130.867C18.5147 130.672 18.3682 130.506 18.1729 130.481C16.8545 130.315 15.6094 129.739 14.6524 128.797C13.4805 127.649 12.836 126.106 12.836 124.471C12.836 123.104 13.2803 121.814 14.1153 120.74C14.9307 119.695 16.0781 118.938 17.3428 118.606L19.1934 118.118L19.8721 116.326C20.292 115.213 20.8779 114.168 21.6153 113.226C22.3428 112.288 23.2071 111.468 24.1739 110.784C26.1807 109.373 28.544 108.626 31.0098 108.626C33.4756 108.626 35.8389 109.373 37.8457 110.789C38.8174 111.473 39.6768 112.293 40.4043 113.23C41.1416 114.173 41.7276 115.218 42.1475 116.331L42.8213 118.118L44.667 118.606C47.3135 119.31 49.1641 121.717 49.1641 124.466C49.1641 126.106 48.5196 127.645 47.3477 128.792C46.3955 129.729 45.1553 130.311 43.8369 130.477C43.6416 130.501 43.5 130.667 43.5 130.862V133.816C43.5 134.046 43.7002 134.227 43.9297 134.207C48.8955 133.758 52.8408 129.617 52.875 124.529C52.9043 119.969 49.8135 116.126 45.6192 115.013Z" fill="#D3D3D3"/>
<path d="M232.316 131.989C232.301 131.92 232.268 131.856 232.219 131.806C232.169 131.755 232.107 131.719 232.038 131.703C227.463 130.584 216.89 134.571 211.162 140.297C210.14 141.31 209.209 142.411 208.378 143.586C206.612 143.43 204.845 143.56 203.34 144.216C199.092 146.086 197.855 150.964 197.511 153.062C197.491 153.177 197.499 153.295 197.532 153.407C197.566 153.518 197.625 153.62 197.705 153.705C197.785 153.79 197.884 153.855 197.993 153.895C198.102 153.936 198.219 153.95 198.335 153.937L205.156 153.185C205.161 153.699 205.192 154.213 205.249 154.724C205.284 155.079 205.441 155.411 205.695 155.662L208.336 158.297C208.587 158.55 208.919 158.707 209.273 158.742C209.782 158.799 210.293 158.83 210.804 158.835L210.055 165.648C210.043 165.763 210.057 165.88 210.098 165.99C210.138 166.099 210.203 166.197 210.288 166.277C210.373 166.357 210.475 166.416 210.586 166.45C210.698 166.484 210.816 166.491 210.93 166.472C213.025 166.136 217.912 164.899 219.77 160.652C220.427 159.146 220.561 157.388 220.409 155.63C221.587 154.8 222.691 153.868 223.707 152.846C229.453 147.129 233.417 136.792 232.316 131.989ZM217.974 146.026C217.45 145.501 217.092 144.833 216.947 144.106C216.802 143.378 216.876 142.624 217.16 141.939C217.444 141.253 217.925 140.668 218.541 140.255C219.158 139.843 219.883 139.623 220.625 139.623C221.367 139.623 222.092 139.843 222.709 140.255C223.325 140.668 223.806 141.253 224.09 141.939C224.374 142.624 224.448 143.378 224.303 144.106C224.158 144.833 223.8 145.501 223.276 146.026C222.928 146.374 222.515 146.651 222.06 146.839C221.605 147.028 221.117 147.125 220.625 147.125C220.133 147.125 219.645 147.028 219.19 146.839C218.735 146.651 218.322 146.374 217.974 146.026Z" fill="#D3D3D3"/>
<path d="M208.156 160.205C207.728 160.634 207.041 160.802 206.215 160.945C204.358 161.261 202.718 159.656 203.052 157.779C203.179 157.067 203.555 156.07 203.79 155.835C203.841 155.785 203.875 155.72 203.887 155.649C203.899 155.578 203.889 155.506 203.857 155.441C203.826 155.377 203.775 155.324 203.711 155.29C203.648 155.256 203.576 155.243 203.505 155.253C202.466 155.38 201.5 155.851 200.76 156.591C198.923 158.429 198.75 165.25 198.75 165.25C198.75 165.25 205.575 165.077 207.412 163.238C208.154 162.499 208.625 161.531 208.75 160.491C208.779 160.165 208.381 159.97 208.156 160.205Z" fill="#D3D3D3"/>
<path d="M140.75 23.5124C140.55 23.5099 140.356 23.4452 140.195 23.3272C140.033 23.2093 139.912 23.044 139.849 22.8544C139.786 22.6647 139.783 22.4601 139.842 22.2689C139.9 22.0777 140.017 21.9094 140.175 21.7874C143.624 19.3474 147.778 18.1048 152 18.2499C155.325 18.2499 160.1 18.8124 163.875 21.5249C164.081 21.673 164.221 21.8968 164.263 22.1473C164.305 22.3979 164.247 22.6549 164.1 22.8624C163.948 23.0677 163.721 23.2051 163.468 23.2448C163.216 23.2845 162.958 23.2235 162.75 23.0749C159.544 21.0377 155.796 20.022 152 20.1624C148.211 20.0337 144.482 21.1391 141.375 23.3124C141.198 23.4532 140.976 23.5244 140.75 23.5124Z" fill="#D3D3D3"/>
<path d="M167.287 32.325C167.133 32.3236 166.981 32.2855 166.844 32.2138C166.707 32.142 166.589 32.0388 166.5 31.9125C164.337 28.8625 160.475 24.8 152 24.8C149.182 24.7291 146.389 25.3398 143.858 26.5803C141.327 27.8209 139.133 29.6544 137.462 31.925C137.312 32.1295 137.088 32.2665 136.837 32.3063C136.587 32.3461 136.331 32.2854 136.125 32.1375C136.017 32.0623 135.926 31.9655 135.857 31.8532C135.788 31.7408 135.744 31.6155 135.726 31.485C135.709 31.3545 135.718 31.2218 135.755 31.0953C135.791 30.9688 135.853 30.8512 135.937 30.75C137.789 28.2486 140.215 26.2287 143.01 24.8604C145.805 23.4921 148.889 22.8155 152 22.8875C159.012 22.8875 164.262 25.4875 168.05 30.8125C168.195 31.0216 168.252 31.2797 168.207 31.5303C168.163 31.781 168.021 32.0038 167.812 32.15C167.658 32.2572 167.476 32.3179 167.287 32.325Z" fill="#D3D3D3"/>
<path d="M147.35 55.75C147.156 55.749 146.967 55.6902 146.807 55.5811C146.646 55.4719 146.522 55.3175 146.45 55.1375C146.4 55.0197 146.375 54.893 146.375 54.7651C146.376 54.6371 146.403 54.5107 146.455 54.3936C146.506 54.2765 146.581 54.1712 146.675 54.0842C146.769 53.9971 146.879 53.9302 147 53.8875C152.462 51.7875 155.75 47.4875 155.75 42.375C155.787 41.873 155.716 41.3688 155.541 40.8969C155.365 40.425 155.09 39.9964 154.735 39.6405C154.379 39.2845 153.95 39.0095 153.478 38.8343C153.006 38.659 152.502 38.5877 152 38.625C149.675 38.625 148.55 39.875 148.25 42.8125C148.11 44.1864 147.444 45.4528 146.39 46.3455C145.337 47.2383 143.978 47.6879 142.6 47.6C141.859 47.6108 141.124 47.4671 140.441 47.178C139.759 46.889 139.144 46.4609 138.636 45.9212C138.128 45.3814 137.738 44.7418 137.49 44.043C137.243 43.3442 137.144 42.6016 137.2 41.8625C137.269 37.9978 138.864 34.3172 141.637 31.6241C144.409 28.931 148.135 27.444 152 27.4875C155.963 27.4874 159.765 29.0558 162.576 31.8499C165.386 34.6441 166.977 38.4369 167 42.4C166.912 45.1905 166.323 47.9425 165.262 50.525C165.161 50.7553 164.974 50.9373 164.741 51.0328C164.508 51.1284 164.247 51.13 164.012 51.0375C163.896 50.9896 163.791 50.9192 163.702 50.8303C163.613 50.7414 163.543 50.6357 163.495 50.5195C163.448 50.4032 163.424 50.2787 163.424 50.153C163.425 50.0274 163.451 49.9031 163.5 49.7875C164.46 47.4376 164.997 44.9367 165.087 42.4C165.071 38.9421 163.684 35.6319 161.231 33.195C158.777 30.7581 155.458 29.3933 152 29.4C150.327 29.3669 148.663 29.6641 147.105 30.2747C145.547 30.8853 144.125 31.7973 142.919 32.9584C141.714 34.1195 140.75 35.5069 140.082 37.0413C139.413 38.5756 139.054 40.2267 139.025 41.9C138.974 42.3863 139.026 42.878 139.179 43.3426C139.331 43.8072 139.58 44.2343 139.91 44.5957C140.239 44.957 140.642 45.2445 141.09 45.4391C141.539 45.6338 142.024 45.7312 142.512 45.725C142.963 45.7698 143.417 45.7249 143.85 45.593C144.283 45.4611 144.685 45.2448 145.034 44.9566C145.382 44.6684 145.67 44.3139 145.881 43.9137C146.092 43.5135 146.222 43.0755 146.262 42.625C146.712 38.7375 148.625 36.7625 151.962 36.7625C152.719 36.7243 153.475 36.8459 154.181 37.1195C154.887 37.3931 155.528 37.8126 156.061 38.3504C156.594 38.8883 157.008 39.5325 157.275 40.241C157.542 40.9496 157.657 41.7065 157.612 42.4625C157.612 48.3875 153.862 53.3625 147.612 55.75C147.525 55.76 147.437 55.76 147.35 55.75Z" fill="#D3D3D3"/>
<path d="M156.712 54.8499C156.473 54.8461 156.243 54.7575 156.062 54.5999C155.973 54.5116 155.902 54.4065 155.854 54.2906C155.806 54.1748 155.781 54.0505 155.781 53.9249C155.781 53.7994 155.806 53.6751 155.854 53.5593C155.902 53.4434 155.973 53.3383 156.062 53.2499C158.875 50.3348 160.459 46.4503 160.487 42.3999C160.487 40.4499 159.887 34.0874 152.112 34.0874C150.98 34.0476 149.85 34.2338 148.79 34.6351C147.73 35.0364 146.76 35.6449 145.937 36.4249C145.201 37.1531 144.62 38.022 144.227 38.9798C143.834 39.9376 143.638 40.9647 143.65 41.9999C143.647 42.253 143.544 42.4947 143.364 42.6725C143.183 42.8503 142.941 42.95 142.687 42.9499C142.562 42.9516 142.437 42.9282 142.32 42.8812C142.203 42.8342 142.097 42.7645 142.008 42.6761C141.918 42.5878 141.847 42.4825 141.798 42.3664C141.75 42.2503 141.725 42.1258 141.725 41.9999C141.705 40.7193 141.941 39.4477 142.417 38.2588C142.894 37.07 143.602 35.9877 144.5 35.0749C145.496 34.1191 146.672 33.3705 147.959 32.8727C149.247 32.3749 150.62 32.1377 152 32.1749C159.6 32.1749 162.3 37.6749 162.3 42.3999C162.284 46.9086 160.539 51.2393 157.425 54.4999C157.339 54.6068 157.231 54.6936 157.108 54.7541C156.984 54.8145 156.85 54.8473 156.712 54.8499Z" fill="#D3D3D3"/>
<path d="M142.825 51.6751C142.173 51.6735 141.522 51.636 140.875 51.5626C140.748 51.5517 140.624 51.5155 140.511 51.456C140.398 51.3965 140.298 51.315 140.217 51.2163C140.136 51.1176 140.076 51.0037 140.04 50.8813C140.003 50.7588 139.992 50.6304 140.006 50.5035C140.02 50.3766 140.06 50.2539 140.122 50.1425C140.185 50.0311 140.269 49.9333 140.369 49.8549C140.47 49.7765 140.586 49.7191 140.709 49.6861C140.832 49.6531 140.961 49.6451 141.088 49.6626C144.2 50.0126 146.65 49.4626 148.388 48.0126C149.188 47.2963 149.836 46.4254 150.292 45.4523C150.747 44.4791 151.001 43.4239 151.038 42.3501C151.044 42.2235 151.076 42.0995 151.131 41.9855C151.186 41.8716 151.264 41.7701 151.36 41.6871C151.456 41.6042 151.568 41.5415 151.688 41.5029C151.809 41.4643 151.936 41.4506 152.063 41.4626C152.315 41.4818 152.549 41.5981 152.717 41.787C152.885 41.9759 152.973 42.2226 152.963 42.4751C152.91 43.812 152.586 45.1243 152.01 46.332C151.434 47.5397 150.618 48.6176 149.613 49.5001C147.683 51.0137 145.275 51.7854 142.825 51.6751Z" fill="#D3D3D3"/>
<line x1="174.354" y1="-15.3536" x2="283.354" y2="93.6464" stroke="#D3D3D3"/>
<line x1="-25.2929" y1="178.293" x2="44.7071" y2="248.293" stroke="#D3D3D3" stroke-width="2"/>
</g>
<defs>
<clipPath id="clip0">
<rect width="300" height="300" fill="white"/>
</clipPath>
</defs>
</svg>
