<svg aria-hidden="true" style="position: absolute; width: 0; height: 0; overflow: hidden;" version="1.1" xmlns="http://www.w3.org/2000/svg" xmlns:xlink="http://www.w3.org/1999/xlink">
<defs>
<symbol id="icon-menu" viewBox="0 0 48 32">
<path d="M0 5.333v-5.333h48v5.333h-48zM0 18.667h48v-5.333h-48v5.333zM0 32h48v-5.333h-48v5.333z"></path>
</symbol>

<symbol id="icon-cross" viewBox="0 0 32 32">
<path fill="#b10000" style="fill: var(--color1, #b10000)" d="M18.28 11.034l8.938-8.938c0.201-0.235 0.306-0.536 0.294-0.845s-0.14-0.601-0.358-0.82c-0.218-0.218-0.511-0.346-0.82-0.358s-0.61 0.093-0.845 0.294l-8.938 8.938-8.938-8.95c-0.235-0.201-0.536-0.306-0.845-0.294s-0.601 0.14-0.82 0.358c-0.218 0.218-0.346 0.511-0.358 0.82s0.093 0.61 0.294 0.845l8.938 8.95-8.95 8.938c-0.128 0.11-0.233 0.245-0.306 0.397s-0.115 0.318-0.121 0.487c-0.007 0.169 0.022 0.337 0.084 0.494s0.155 0.3 0.275 0.42 0.262 0.213 0.42 0.275c0.157 0.062 0.326 0.090 0.495 0.084s0.335-0.048 0.487-0.122c0.152-0.074 0.287-0.178 0.397-0.306l8.95-8.938 8.938 8.938c0.234 0.201 0.536 0.306 0.845 0.294s0.601-0.14 0.82-0.358c0.218-0.218 0.346-0.511 0.358-0.82s-0.093-0.61-0.294-0.845l-8.938-8.938z"></path>
</symbol>

<symbol id="icon-btn-envelope" viewBox="0 0 42 32">
<path fill="#fff" style="fill: var(--color2, #fff)" d="M38.596 0.211c1.937 0 3.509 1.571 3.509 3.509v24.56c0 1.937-1.571 3.509-3.509 3.509h-35.086c-1.937 0-3.509-1.571-3.509-3.509v-24.56c0-1.937 1.571-3.509 3.509-3.509h35.086zM15.091 18.796l-10.337 10.215h32.263l-10.225-10.109-5.739 3.973-5.962-4.078zM39.242 10.299l-10.097 6.981 10.097 9.971v-16.952zM2.865 10.427v16.497l9.865-9.749-9.865-6.747zM38.562 2.992h-34.987c-0.192-0.009-0.38 0.056-0.526 0.181-0.065 0.058-0.115 0.131-0.146 0.212s-0.042 0.169-0.033 0.255v3.411l18.183 12.436 18.198-12.558v-3.141c0.002-0.282-0.063-0.486-0.194-0.615-0.065-0.063-0.142-0.112-0.227-0.143s-0.175-0.044-0.266-0.038h-0.002z"></path>
</symbol>

<symbol id="icon-dotted-line" viewBox="0 0 37 32">
<path fill="#fff" style="fill: var(--color2, #fff)" d="M38.596 0.211c1.937 0 3.509 1.571 3.509 3.509v24.56c0 1.937-1.571 3.509-3.509 3.509h-35.086c-1.937 0-3.509-1.571-3.509-3.509v-24.56c0-1.937 1.571-3.509 3.509-3.509h35.086zM15.091 18.796l-10.337 10.215h32.263l-10.225-10.109-5.739 3.973-5.962-4.078zM39.242 10.299l-10.097 6.981 10.097 9.971v-16.952zM2.865 10.427v16.497l9.865-9.749-9.865-6.747zM38.562 2.992h-34.987c-0.192-0.009-0.38 0.056-0.526 0.181-0.065 0.058-0.115 0.131-0.146 0.212s-0.042 0.169-0.033 0.255v3.411l18.183 12.436 18.198-12.558v-3.141c0.002-0.282-0.063-0.486-0.194-0.615-0.065-0.063-0.142-0.112-0.227-0.143s-0.175-0.044-0.266-0.038h-0.002z"></path>
</symbol>

<symbol id="icon-question" viewBox="0 0 36 32">
<path fill="#fe9e45" style="fill: var(--color3, #fe9e45)" d="M17.92 0c-9.778 0-17.778 6.4-17.778 14.222 0 3.911 1.956 7.467 4.978 9.778 0 1.067-0.711 3.911-4.978 8 4.267-0.178 8.178-1.778 11.556-4.444 1.956 0.533 4.089 0.889 6.222 0.889 9.778 0 17.778-6.4 17.778-14.222s-8-14.222-17.778-14.222zM17.92 24.889c-7.822 0-14.222-4.8-14.222-10.667s6.4-10.667 14.222-10.667c7.822 0 14.222 4.8 14.222 10.667s-6.4 10.667-14.222 10.667zM18.276 6.222c-1.6 0-2.844 0.356-3.733 0.889-1.067 0.711-1.6 1.778-1.422 3.022h3.556c0-0.533 0.178-0.889 0.533-1.067s0.711-0.356 1.244-0.356c0.533 0 1.067 0.178 1.422 0.533s0.533 0.711 0.533 1.244c0 0.533-0.178 0.889-0.356 1.244-0.356 0.356-0.711 0.711-1.067 0.889-0.889 0.533-1.6 1.067-1.956 1.422-0.711 0.533-0.889 1.067-0.889 1.956h3.556c0-0.533 0.178-0.889 0.178-1.244 0.178-0.356 0.533-0.533 0.889-0.889 0.889-0.356 1.422-0.889 1.956-1.6s0.711-1.422 0.711-2.133c0-1.244-0.533-2.311-1.422-3.022-0.711-0.533-2.133-0.889-3.733-0.889zM16.142 17.778v3.556h3.556v-3.556h-3.556z"></path>
</symbol>

<symbol id="icon-thinking-face" viewBox="0 0 32 32">
<path fill="#fe9e45" style="fill: var(--color3, #fe9e45)" d="M15.9 29.7c-6.975 0-14.5-4.375-14.5-13.975s7.525-13.975 14.5-13.975c3.875 0 7.45 1.275 10.1 3.6 2.875 2.55 4.4 6.15 4.4 10.375s-1.525 7.8-4.4 10.35c-2.65 2.325-6.25 3.625-10.1 3.625z"></path>
<path fill="#dd6e25" style="fill: var(--color4, #dd6e25)" d="M27.872 7.418c1.332 2.15 2.028 4.71 2.028 7.558 0 4.225-1.525 7.8-4.4 10.35-2.65 2.325-6.25 3.625-10.1 3.625-4.515 0-9.25-1.838-12.045-5.735 2.69 4.415 7.75 6.485 12.545 6.485 3.85 0 7.45-1.3 10.1-3.625 2.875-2.55 4.4-6.125 4.4-10.35 0-3.185-0.868-6.015-2.528-8.307z"></path>
<path fill="#000" style="fill: var(--color5, #000)" opacity="0.66" d="M1.62 18.777c0.25-0.652 1.355-0.662 2.172-0.267 1.583 0.767 1.395 2.447 2.188 2.782s3.295-1.717 6.813-2.042c0.395-0.038 2.727-0.33 2.957 0.65 0.090 0.388-0.57 0.463-0.57 0.463-1.43 0.53-2.885 1.070-4.165 1.908-1.453 0.947-2.723 2.287-4.41 2.682-0.657 0.152-1.4 0.13-1.935-0.277-0.665-0.5-0.813-1.418-1.055-2.215-0.279-0.913-0.734-1.762-1.34-2.5z"></path>
<path fill="#ffbb7c" style="fill: var(--color6, #ffbb7c)" d="M1.59 18.775c-0.455 0.552 0.513 2.020 0.685 2.767 0.415 1.805 0 2.25-0.033 3.855-0.027 1.765 0.5 3.25 1.845 4.198 1.265 0.897 2.658 1 4.607 0.425s3.268-0.852 3.367-1.812c0.055-0.398-0.155-0.788-0.52-0.958 0.195-0.092 0.35-0.25 0.438-0.448 0.465-1.11-0.463-1.345-0.463-1.345 0.127-0.152 0.235-0.32 0.32-0.5 0.277-0.552 0.232-1.302-0.568-1.548-0.367-0.112-0.467-0.052-0.467-0.052 0.38-0.39 0.835-0.702 1.338-0.912 1.345-0.577 2.94-0.928 3.338-1.265 0.578-0.5 0.613-1.463-0.408-1.75-1.465-0.43-4.16 0.57-5.8 1.612s-3.145 1.605-3.645 1.415c-0.5-0.19-0.81-0.5-1-1.25-0.353-1.395-0.625-1.935-1.223-2.458-0.495-0.425-1.462-0.4-1.813 0.025z"></path>
<path fill="#000" style="fill: var(--color5, #000)" d="M9.72 24.195c0 0-0.367-0.25 1.1-1.423 1-0.803 1.578-0.948 2.775-1.25 2.42-0.593 2.268-1.355 2.268-1.355 0.13 1.122-0.98 1.372-1.793 1.628-0.085 0.025-0.165 0.057-0.25 0.077-2.783 0.71-3.755 2.545-4.1 2.323z"></path>
<path fill="#000" style="fill: var(--color5, #000)" d="M12 26.977c0.217-0.36 0.277-0.797 0.162-1.202-0.080-0.238-0.232-0.445-0.44-0.588 0.030-0.040 0.060-0.077 0.088-0.123 0.223-0.348 0.255-0.785 0.088-1.162-0.19-0.298-0.5-0.495-0.848-0.54 0.238 0.115 0.415 0.328 0.485 0.582 0.040 0.308-0.005 0.623-0.125 0.908-0.079 0.191-0.207 0.359-0.371 0.484s-0.359 0.206-0.564 0.233c-0.605 0.12-0.42 0.37-0.42 0.37 0.053 0.2 0.768 0.015 1.31-0.39 0.152 0.080 0.268 0.218 0.322 0.38 0.057 0.252 0.023 0.52-0.098 0.75-0.083 0.182-0.206 0.343-0.358 0.473s-0.331 0.224-0.524 0.277c-0.537 0.147-0.39 0.345-0.39 0.345s0.025 0.425 1.13-0.275c0.13 0.25 0.303 0.808-0.043 1.168-1.17 1.232-4.617 1.708-4.617 1.708 1.75 0 4.155-0.675 4.9-1.292 0.143-0.112 0.259-0.254 0.339-0.417s0.122-0.342 0.124-0.523c0.033-0.343-0.095-0.683-0.342-0.923 0.070-0.075 0.135-0.155 0.193-0.243z"></path>
<path fill="#422b0d" style="fill: var(--color7, #422b0d)" d="M19.217 17.828c-0.080-0.015-0.155-0.048-0.217-0.1-1.127-0.904-2.472-1.496-3.9-1.715-1.428-0.248-2.893-0.113-4.25 0.39-0.075 0.030-0.155 0.040-0.235 0.028-0.175-0.030-0.318-0.16-0.365-0.332-0.047-0.17 0.010-0.35 0.145-0.462 2.65-2.2 6.58-1.835 8.78 0.815 0.18 0.218 0.345 0.448 0.495 0.685 0.095 0.147 0.095 0.337 0 0.485-0.098 0.152-0.275 0.232-0.453 0.208z"></path>
<path fill="#422b0d" style="fill: var(--color7, #422b0d)" d="M20.192 7.777c1.048 0 2 0.885 2 2.355s-0.952 2.352-2 2.352c-1.048 0-2-0.885-2-2.352s0.952-2.355 2-2.355z"></path>
<path fill="#422b0d" style="fill: var(--color7, #422b0d)" d="M11.535 5.5c-1.047 0-2 0.885-2 2.353s0.953 2.355 2 2.355c1.050 0 2-0.885 2-2.355s-0.95-2.353-2-2.353z"></path>
<path fill="#422b0d" style="fill: var(--color7, #422b0d)" d="M9.932 2.658c-0.113-0.185-0.127-0.415-0.040-0.613 0.095-0.198 0.283-0.333 0.5-0.36 1.363-0.212 2.752 0.11 3.883 0.897 0.422 0.29 0.797 0.64 1.115 1.042 0.020 0.025 0.037 0.053 0.055 0.083 0.17 0.265 0.113 0.615-0.133 0.812-0.127 0.105-0.288 0.161-0.454 0.158s-0.324-0.067-0.446-0.178l0.105-0.17-0.127 0.15c-1.094-0.915-2.464-1.437-3.89-1.48-0.238 0-0.457-0.125-0.578-0.33l0.010-0.013z"></path>
<path fill="#422b0d" style="fill: var(--color7, #422b0d)" d="M23.25 7.13c0.091-0.051 0.169-0.123 0.228-0.21s0.095-0.186 0.107-0.29c0.008-0.107-0.011-0.214-0.054-0.311s-0.111-0.183-0.196-0.248c-1.083-0.862-2.458-1.275-3.835-1.145-0.51 0.043-1.010 0.162-1.485 0.355l-0.090 0.043c-0.277 0.147-0.4 0.48-0.285 0.772 0.059 0.153 0.17 0.281 0.315 0.359s0.312 0.102 0.473 0.066v-0.2l0.035 0.195c1.4-0.26 2.848-0.043 4.11 0.617 0.208 0.117 0.46 0.117 0.668 0l0.010-0.003z"></path>
</symbol>

<symbol id="icon-btn-price" viewBox="0 0 36 32">
<path fill="#fff" style="fill: var(--color2, #fff)" d="M31.863 20h-18.507l0.413 2h16.946c0.972 0 1.693 0.894 1.477 1.832l-0.348 1.517c1.18 0.567 1.994 1.764 1.994 3.15 0 1.95-1.611 3.528-3.587 3.5-1.883-0.027-3.431-1.539-3.482-3.403-0.028-1.018 0.384-1.941 1.061-2.597h-13.235c0.655 0.635 1.062 1.52 1.062 2.5 0 1.988-1.675 3.589-3.704 3.496-1.802-0.083-3.267-1.524-3.362-3.307-0.073-1.377 0.659-2.591 1.771-3.224l-4.435-21.465h-4.412c-0.837 0-1.515-0.672-1.515-1.5v-1c0-0.828 0.678-1.5 1.515-1.5h6.473c0.72 0 1.34 0.501 1.484 1.199l0.579 2.801h24.797c0.972 0 1.693 0.894 1.478 1.832l-2.984 13c-0.157 0.683-0.77 1.168-1.478 1.168zM25.444 12h-2.716v-3.75c0-0.414-0.339-0.75-0.758-0.75h-1.515c-0.418 0-0.758 0.336-0.758 0.75v3.75h-2.716c-0.675 0-1.013 0.808-0.536 1.28l4.232 4.189c0.296 0.293 0.775 0.293 1.071 0l4.232-4.189c0.477-0.472 0.139-1.28-0.536-1.28z"></path>
</symbol>

<symbol id="icon-price" viewBox="0 0 32 32">
<path fill="#fe9e45" style="fill: var(--color3, #fe9e45)" d="M1.778 19.556h28.444v-7.111h-28.444v7.111zM8.889 15.111h12.444v1.778h-12.444v-1.778zM5.333 15.111h1.778v1.778h-1.778v-1.778z"></path>
<path fill="#fe9e45" style="fill: var(--color3, #fe9e45)" d="M28.444 3.555h-24.889c-0.471 0-0.924 0.187-1.257 0.521s-0.521 0.786-0.521 1.257v5.333h28.444v-5.333c0-0.471-0.187-0.924-0.521-1.257s-0.786-0.521-1.257-0.521zM7.111 8h-1.778v-1.778h1.778v1.778zM21.333 8h-12.444v-1.778h12.444v1.778z"></path>
<path fill="#fe9e45" style="fill: var(--color3, #fe9e45)" d="M1.778 26.667c0 0.472 0.187 0.924 0.521 1.257s0.786 0.521 1.257 0.521h24.889c0.472 0 0.924-0.187 1.257-0.521s0.521-0.786 0.521-1.257v-5.333h-28.444v5.333zM8.889 24h12.444v1.778h-12.444v-1.778zM5.333 24h1.778v1.778h-1.778v-1.778z"></path>
</symbol>

<symbol id="icon-about-safety" viewBox="0 0 29 32">
<path fill="none" stroke="#fff" style="stroke: var(--color2, #fff)" stroke-linejoin="round" stroke-linecap="butt" stroke-miterlimit="4" stroke-width="2" d="M1.372 5.246l13.132-3.833 13.118 3.833v7.859c0 8.26-5.286 14.864-13.123 17.475-7.838-2.61-13.127-9.217-13.127-17.479v-7.855z"></path>
<path fill="#fff" style="fill: var(--color2, #fff)" d="M21.683 12.568c-0.006-0.085-0.030-0.168-0.069-0.243s-0.092-0.141-0.157-0.194-0.139-0.092-0.219-0.114c-0.080-0.022-0.163-0.027-0.245-0.014-1.306 0.215-4.369 1.461-6.496 1.461s-5.189-1.246-6.496-1.461c-0.082-0.013-0.165-0.008-0.245 0.013s-0.154 0.060-0.219 0.113-0.118 0.119-0.157 0.194c-0.039 0.075-0.062 0.158-0.069 0.243-0.106 1.185-0.314 4.339-0.314 4.817 0 0.642 2.604 2.113 4.5 2.113 1.839 0 2.213-2.113 3-2.113s1.161 2.113 3 2.113c1.896 0 4.5-1.471 4.5-2.113 0-0.478-0.208-3.632-0.314-4.816zM12.742 16.342c-0.265 0.246-1.001 0.827-1.898 0.646s-1.439-1.023-1.624-1.359c-0.022-0.039-0.031-0.084-0.025-0.128s0.026-0.086 0.058-0.117c0.265-0.246 1.001-0.827 1.899-0.646s1.439 1.023 1.624 1.359c0.022 0.039 0.030 0.084 0.024 0.129s-0.026 0.085-0.058 0.117zM19.775 15.628c-0.184 0.337-0.727 1.178-1.625 1.359s-1.634-0.4-1.898-0.646c-0.031-0.031-0.052-0.072-0.058-0.117s0.002-0.090 0.024-0.129c0.184-0.337 0.727-1.178 1.625-1.359s1.634 0.4 1.898 0.646c0.032 0.031 0.052 0.072 0.058 0.117s-0.003 0.090-0.024 0.129z"></path>
</symbol>

<symbol id="icon-about-dollar" viewBox="0 0 37 32">
<path fill="#fff" style="fill: var(--color2, #fff)" d="M26.607 11.481c0-6.236-5.841-11.29-13.047-11.29s-13.047 5.055-13.047 11.29c0 2.418 0.886 4.654 2.382 6.49-0.838 2.134-2.224 3.823-2.244 3.847-0.068 0.080-0.113 0.181-0.13 0.289s-0.006 0.221 0.033 0.322c0.039 0.101 0.103 0.188 0.185 0.248s0.178 0.093 0.276 0.093c2.294 0 4.198-0.864 5.566-1.763 2.020 1.111 4.409 1.763 6.979 1.763 7.206 0 13.047-5.055 13.047-11.29zM12.556 18.255v-1.15c-0.708-0.041-1.397-0.319-1.968-0.801-0.245-0.207-0.257-0.619-0.036-0.857l0.737-0.791c0.174-0.186 0.432-0.195 0.635-0.052 0.243 0.171 0.518 0.262 0.804 0.262h1.763c0.408 0 0.74-0.418 0.74-0.931 0-0.42-0.226-0.79-0.55-0.898l-2.823-0.953c-1.166-0.394-1.981-1.653-1.981-3.062 0-1.73 1.195-3.136 2.676-3.18v-1.138c0-0.312 0.225-0.565 0.502-0.565h1.004c0.277 0 0.502 0.253 0.502 0.565v1.149c0.708 0.041 1.397 0.318 1.968 0.801 0.245 0.207 0.257 0.619 0.036 0.857l-0.737 0.791c-0.174 0.186-0.432 0.195-0.635 0.052-0.243-0.171-0.518-0.262-0.804-0.262h-1.763c-0.408 0-0.74 0.418-0.74 0.931 0 0.42 0.226 0.79 0.55 0.898l2.823 0.953c1.166 0.394 1.981 1.653 1.981 3.062 0 1.731-1.195 3.136-2.676 3.18v1.138c0 0.312-0.225 0.564-0.502 0.564h-1.004c-0.277 0-0.502-0.253-0.502-0.564zM34.26 27.004c1.497-1.837 2.383-4.073 2.383-6.491 0-4.724-3.355-8.764-8.112-10.449 0.054 0.466 0.083 0.938 0.083 1.416 0 7.471-6.753 13.548-15.054 13.548-0.676 0-1.337-0.054-1.99-0.133 1.978 4.058 6.617 6.907 12.026 6.907 2.57 0 4.96-0.652 6.979-1.763 1.367 0.898 3.271 1.763 5.566 1.763 0.201 0 0.382-0.135 0.46-0.342 0.080-0.207 0.041-0.447-0.097-0.612-0.019-0.023-1.406-1.71-2.244-3.846z"></path>
</symbol>

<symbol id="icon-about-employee" viewBox="0 0 32 32">
<path fill="#fff" style="fill: var(--color2, #fff)" d="M14.775 14.636c3.127 0 5.661-2.535 5.661-5.661s-2.535-5.661-5.661-5.661c-3.127 0-5.661 2.535-5.661 5.661s2.535 5.661 5.661 5.661z"></path>
<path fill="#fff" style="fill: var(--color2, #fff)" d="M18.404 24.986h6.135v1.227h-6.135v-1.227z"></path>
<path fill="#fff" style="fill: var(--color2, #fff)" d="M13.145 26.739v2.629c0 0.232 0.092 0.455 0.257 0.62s0.387 0.257 0.62 0.257h14.898c0.232 0 0.455-0.092 0.62-0.257s0.257-0.387 0.257-0.62v-8.764c0-0.232-0.092-0.455-0.257-0.62s-0.387-0.257-0.62-0.257h-6.135v-1.288c0-0.232-0.092-0.455-0.257-0.62s-0.387-0.257-0.62-0.257-0.455 0.092-0.62 0.257c-0.164 0.164-0.257 0.387-0.257 0.62v1.288h-1.753v-3.137c-1.489-0.243-2.996-0.366-4.505-0.368-3.328-0.014-6.618 0.701-9.64 2.095-0.497 0.235-0.917 0.607-1.209 1.073s-0.444 1.006-0.439 1.556v5.793h9.658zM28.044 28.492h-13.146v-7.011h6.135v0.368c0 0.232 0.092 0.455 0.257 0.62s0.387 0.257 0.62 0.257 0.455-0.092 0.62-0.257c0.164-0.164 0.257-0.387 0.257-0.62v-0.368h5.258v7.011z"></path>
</symbol>

<symbol id="icon-about-devops" viewBox="0 0 32 32">
<path fill="#fff" style="fill: var(--color2, #fff)" d="M16 14.441c2.063 0 4.041 0.819 5.5 2.278s2.278 3.437 2.278 5.5v9.333h-15.556v-9.333c0-2.063 0.819-4.041 2.278-5.5s3.437-2.278 5.5-2.278zM5.559 19.117c-0.248 0.835-0.394 1.697-0.436 2.567l-0.012 0.535v9.333h-4.667v-7c-0-1.342 0.495-2.636 1.39-3.635s2.128-1.632 3.462-1.778l0.263-0.022zM26.441 19.117c1.384 0.084 2.684 0.694 3.635 1.704s1.48 2.345 1.48 3.731v7h-4.667v-9.333c0-1.078-0.156-2.119-0.448-3.102zM5.889 9.774c1.031 0 2.021 0.41 2.75 1.139s1.139 1.718 1.139 2.75c0 1.031-0.41 2.021-1.139 2.75s-1.718 1.139-2.75 1.139-2.021-0.41-2.75-1.139c-0.729-0.729-1.139-1.719-1.139-2.75s0.41-2.021 1.139-2.75c0.729-0.729 1.718-1.139 2.75-1.139zM26.111 9.774c1.031 0 2.021 0.41 2.75 1.139s1.139 1.718 1.139 2.75c0 1.031-0.41 2.021-1.139 2.75s-1.718 1.139-2.75 1.139c-1.031 0-2.021-0.41-2.75-1.139s-1.139-1.719-1.139-2.75c0-1.031 0.41-2.021 1.139-2.75s1.718-1.139 2.75-1.139zM16 0.441c1.65 0 3.233 0.656 4.4 1.822s1.822 2.75 1.822 4.4c0 1.65-0.656 3.233-1.822 4.4s-2.75 1.822-4.4 1.822-3.233-0.656-4.4-1.822c-1.167-1.167-1.822-2.75-1.822-4.4s0.656-3.233 1.822-4.4c1.167-1.167 2.75-1.822 4.4-1.822z"></path>
</symbol>

<symbol id="icon-about-support" viewBox="0 0 32 32">
<path fill="#fff" style="fill: var(--color2, #fff)" d="M15.775 3.077c-7.248 0-13.146 5.897-13.146 13.146v5.446c0 1.346 1.179 2.441 2.629 2.441h1.315c0.349 0 0.683-0.139 0.929-0.385s0.385-0.581 0.385-0.93v-6.761c0-0.349-0.138-0.683-0.385-0.93s-0.581-0.385-0.929-0.385h-1.194c0.731-5.087 5.108-9.014 10.396-9.014s9.665 3.927 10.395 9.014h-1.194c-0.349 0-0.683 0.139-0.93 0.385s-0.385 0.581-0.385 0.93v8.075c0 1.45-1.179 2.629-2.629 2.629h-2.629v-1.315h-5.258v3.944h7.887c2.9 0 5.258-2.358 5.258-5.258 1.45 0 2.629-1.095 2.629-2.441v-5.446c0-7.248-5.897-13.146-13.146-13.146z"></path>
</symbol>

<symbol id="icon-adv-unique" viewBox="0 0 32 32">
<path fill="#fe9e45" style="fill: var(--color3, #fe9e45)" d="M7 5.21c-0.16-0.002-0.315-0.054-0.444-0.148s-0.226-0.227-0.276-0.378c-0.051-0.152-0.053-0.315-0.006-0.468s0.14-0.288 0.267-0.385c2.759-1.952 6.082-2.946 9.46-2.83 2.66 0 6.48 0.45 9.5 2.62 0.165 0.119 0.277 0.297 0.31 0.498s-0.013 0.406-0.13 0.572c-0.122 0.164-0.303 0.274-0.505 0.306s-0.408-0.017-0.575-0.136c-2.564-1.63-5.564-2.442-8.6-2.33-3.032-0.103-6.014 0.781-8.5 2.52-0.142 0.113-0.319 0.17-0.5 0.16z"></path>
<path fill="#fe9e45" style="fill: var(--color3, #fe9e45)" d="M28.23 12.26c-0.124-0.001-0.245-0.032-0.355-0.089s-0.204-0.14-0.275-0.241c-1.73-2.44-4.82-5.69-11.6-5.69-2.254-0.057-4.489 0.432-6.514 1.424s-3.78 2.459-5.116 4.276c-0.12 0.164-0.3 0.273-0.5 0.305s-0.405-0.017-0.57-0.135c-0.086-0.060-0.159-0.138-0.214-0.227s-0.091-0.19-0.105-0.295c-0.014-0.104-0.006-0.211 0.023-0.312s0.079-0.195 0.146-0.276c1.481-2.001 3.422-3.617 5.658-4.712s4.703-1.636 7.192-1.578c5.61 0 9.81 2.080 12.84 6.34 0.116 0.167 0.162 0.374 0.126 0.574s-0.149 0.379-0.316 0.496c-0.124 0.086-0.27 0.134-0.42 0.14z"></path>
<path fill="#fe9e45" style="fill: var(--color3, #fe9e45)" d="M12.28 31c-0.155-0.001-0.306-0.048-0.435-0.135s-0.228-0.211-0.285-0.355c-0.040-0.094-0.060-0.196-0.060-0.298s0.022-0.203 0.063-0.297 0.101-0.178 0.176-0.247c0.075-0.070 0.163-0.123 0.26-0.157 4.37-1.68 7-5.12 7-9.21 0.030-0.402-0.027-0.805-0.167-1.182s-0.36-0.72-0.645-1.005c-0.285-0.285-0.628-0.505-1.005-0.645s-0.781-0.197-1.182-0.167c-1.86 0-2.76 1-3 3.35-0.112 1.099-0.645 2.112-1.488 2.826s-1.93 1.074-3.032 1.004c-0.593 0.009-1.181-0.106-1.727-0.338s-1.038-0.574-1.444-1.005c-0.406-0.432-0.718-0.944-0.916-1.503s-0.277-1.153-0.232-1.744c0.055-3.092 1.331-6.036 3.549-8.191s5.199-3.344 8.291-3.309c3.171-0 6.212 1.255 8.461 3.49s3.521 5.27 3.539 8.44c-0.071 2.232-0.541 4.434-1.39 6.5-0.081 0.184-0.231 0.33-0.418 0.406s-0.395 0.078-0.582 0.004c-0.093-0.038-0.177-0.095-0.248-0.166s-0.127-0.156-0.165-0.249c-0.038-0.093-0.057-0.193-0.057-0.293s0.021-0.2 0.061-0.292c0.768-1.88 1.198-3.881 1.27-5.91-0.013-2.766-1.123-5.415-3.085-7.364s-4.618-3.041-7.385-3.036c-1.339-0.027-2.669 0.211-3.916 0.7s-2.384 1.218-3.349 2.147c-0.964 0.929-1.736 2.039-2.27 3.266s-0.822 2.548-0.845 3.887c-0.041 0.389 0.001 0.782 0.123 1.154s0.321 0.713 0.585 1.002c0.264 0.289 0.585 0.519 0.944 0.675s0.747 0.234 1.138 0.229c0.36 0.036 0.724-0 1.070-0.106s0.668-0.279 0.947-0.509c0.279-0.231 0.509-0.514 0.678-0.834s0.272-0.671 0.305-1.031c0.36-3.11 1.89-4.69 4.56-4.69 0.605-0.031 1.21 0.067 1.775 0.286s1.077 0.554 1.504 0.985c0.427 0.43 0.758 0.946 0.971 1.512s0.306 1.172 0.27 1.777c0 4.74-3 8.72-8 10.63-0.070 0.008-0.14 0.008-0.21 0z"></path>
<path fill="#fe9e45" style="fill: var(--color3, #fe9e45)" d="M19.77 30.28c-0.192-0.003-0.376-0.074-0.52-0.2-0.071-0.071-0.128-0.155-0.167-0.247s-0.059-0.192-0.059-0.293c0-0.101 0.020-0.2 0.059-0.293s0.095-0.177 0.167-0.247c2.25-2.332 3.517-5.44 3.54-8.68 0-1.56-0.48-6.65-6.7-6.65-0.906-0.032-1.81 0.117-2.658 0.438s-1.624 0.808-2.282 1.432c-0.589 0.583-1.054 1.278-1.369 2.044s-0.471 1.588-0.461 2.416c-0.003 0.202-0.085 0.396-0.229 0.538s-0.338 0.222-0.541 0.222c-0.101 0.001-0.201-0.017-0.294-0.055s-0.178-0.093-0.25-0.164c-0.072-0.071-0.128-0.155-0.167-0.248s-0.059-0.192-0.059-0.293c-0.016-1.024 0.173-2.042 0.554-2.993s0.947-1.817 1.666-2.547c0.797-0.765 1.737-1.364 2.767-1.762s2.129-0.588 3.233-0.558c6.080 0 8.24 4.4 8.24 8.18-0.013 3.607-1.409 7.071-3.9 9.68-0.069 0.086-0.155 0.155-0.254 0.203s-0.206 0.075-0.316 0.077z"></path>
<path fill="#fe9e45" style="fill: var(--color3, #fe9e45)" d="M8.66 27.74c-0.521-0.001-1.042-0.031-1.56-0.090-0.102-0.009-0.201-0.038-0.291-0.085s-0.17-0.113-0.235-0.192-0.113-0.17-0.142-0.268c-0.029-0.098-0.038-0.201-0.027-0.302s0.043-0.2 0.093-0.289 0.117-0.167 0.198-0.23c0.081-0.063 0.173-0.109 0.272-0.135s0.202-0.033 0.303-0.019c2.49 0.28 4.45-0.16 5.84-1.32 0.641-0.573 1.159-1.27 1.523-2.048s0.567-1.623 0.597-2.482c0.005-0.101 0.030-0.2 0.075-0.292s0.107-0.172 0.183-0.239c0.077-0.066 0.166-0.116 0.262-0.147s0.198-0.042 0.299-0.032c0.202 0.015 0.389 0.108 0.524 0.26s0.205 0.348 0.196 0.55c-0.042 1.070-0.301 2.119-0.762 3.086s-1.113 1.828-1.918 2.534c-1.544 1.211-3.47 1.828-5.43 1.74z"></path>
</symbol>

<symbol id="icon-adv-price" viewBox="0 0 31 32">
<path fill="#fe9e45" style="fill: var(--color3, #fe9e45)" d="M15.324 0c-4.015 0-7.673 1.326-9.837 2.41-0.196 0.098-0.378 0.194-0.548 0.286-0.336 0.183-0.622 0.354-0.85 0.504l2.462 3.625 1.159 0.461c4.53 2.285 10.604 2.285 15.135 0l1.316-0.683 2.328-3.404c-0.482-0.315-0.984-0.599-1.501-0.851-2.154-1.072-5.724-2.349-9.663-2.349h-0.001zM9.597 4.103c-0.872-0.163-1.733-0.379-2.579-0.647 2.028-0.9 5.049-1.856 8.305-1.856 2.255 0 4.388 0.459 6.151 1.040-2.067 0.291-4.272 0.784-6.373 1.391-1.653 0.478-3.586 0.427-5.504 0.072zM23.784 8.604l-0.219 0.11c-4.983 2.514-11.593 2.514-16.576 0l-0.207-0.105c-7.486 8.214-13.202 23.388 8.541 23.388s15.888-15.457 8.46-23.393zM14.4 16c-0.471 0-0.924 0.187-1.257 0.521s-0.521 0.786-0.521 1.257 0.187 0.924 0.521 1.257c0.333 0.333 0.786 0.521 1.257 0.521v-3.556zM16.178 14.222v-0.889h-1.778v0.889c-0.943 0-1.847 0.375-2.514 1.041s-1.041 1.571-1.041 2.514 0.375 1.847 1.041 2.514c0.667 0.667 1.571 1.041 2.514 1.041v3.556c-0.773 0-1.432-0.493-1.677-1.185-0.036-0.113-0.095-0.218-0.173-0.308s-0.172-0.164-0.279-0.216c-0.107-0.053-0.223-0.084-0.341-0.091s-0.238 0.010-0.35 0.049c-0.112 0.040-0.215 0.101-0.303 0.181s-0.159 0.177-0.208 0.285c-0.050 0.108-0.077 0.225-0.081 0.344s0.016 0.237 0.059 0.348c0.245 0.693 0.699 1.294 1.3 1.718s1.318 0.653 2.053 0.653v0.889h1.778v-0.889c0.943 0 1.847-0.375 2.514-1.041s1.041-1.571 1.041-2.514-0.375-1.847-1.041-2.514c-0.667-0.667-1.571-1.041-2.514-1.041v-3.556c0.773 0 1.432 0.493 1.677 1.185 0.036 0.113 0.095 0.218 0.173 0.308s0.172 0.164 0.279 0.216c0.107 0.053 0.223 0.084 0.341 0.091s0.238-0.010 0.35-0.049c0.112-0.040 0.215-0.101 0.303-0.181s0.159-0.177 0.208-0.285c0.050-0.108 0.077-0.225 0.081-0.344s-0.016-0.237-0.059-0.348c-0.245-0.693-0.699-1.294-1.3-1.718s-1.318-0.653-2.053-0.653zM16.178 21.333v3.556c0.471 0 0.924-0.187 1.257-0.521s0.521-0.786 0.521-1.257-0.187-0.924-0.521-1.257c-0.333-0.333-0.786-0.521-1.257-0.521z"></path>
</symbol>

<symbol id="icon-adv-optimization" viewBox="0 0 32 32">
<path fill="#fe9e45" style="fill: var(--color3, #fe9e45)" d="M29.509 14.491h2.34v3.019h-2.34c-0.679 6.294-5.706 11.321-12 12v2.34h-3.019v-2.34c-6.294-0.679-11.321-5.706-12-12h-2.34v-3.019h2.34c0.679-6.294 5.706-11.321 12-12v-2.34h3.019v2.34c6.294 0.679 11.321 5.706 12 12zM5.54 14.491h2.159v3.019h-2.159c0.321 2.26 1.367 4.355 2.981 5.97s3.709 2.661 5.97 2.981v-2.159h3.019v2.159c2.26-0.321 4.355-1.367 5.97-2.981s2.661-3.709 2.981-5.97h-2.159v-3.019h2.159c-0.321-2.26-1.367-4.355-2.981-5.97s-3.709-2.661-5.97-2.981v2.159h-3.019v-2.159c-2.26 0.321-4.355 1.367-5.97 2.981s-2.661 3.709-2.981 5.97zM22.038 22.038h-12.075v-1.509c0-2.008 4.030-3.019 6.038-3.019s6.038 1.011 6.038 3.019v1.509zM16 9.962c0.801 0 1.569 0.318 2.135 0.884s0.884 1.334 0.884 2.135c0 0.801-0.318 1.569-0.884 2.135s-1.334 0.884-2.135 0.884c-0.801 0-1.569-0.318-2.135-0.884s-0.884-1.334-0.884-2.135c0-0.801 0.318-1.569 0.884-2.135s1.334-0.884 2.135-0.884z"></path>
</symbol>

<symbol id="icon-adv-windows" viewBox="0 0 32 32">
<path fill="#fe9e45" style="fill: var(--color3, #fe9e45)" d="M0.011 15.009l-0.011-10.356 12.743-1.731v12.087h-12.733zM14.867 2.614l16.987-2.472v14.867h-16.987v-12.395zM31.858 17.133l-0.004 14.867-16.987-2.39v-12.478h16.991zM12.743 29.339l-12.733-1.746v-10.462h12.733v12.208z"></path>
</symbol>

<symbol id="icon-adv-soft" viewBox="0 0 32 32">
<path fill="#fe9e45" style="fill: var(--color3, #fe9e45)" d="M31.909 20.012c0.042 0.375 0.062 0.708 0.062 0.999s-0.021 0.624-0.062 0.999h-1.998c-0.062 0.5-0.156 0.999-0.281 1.499l1.842 0.78c-0.187 0.604-0.437 1.218-0.749 1.842l-1.873-0.78c-0.229 0.437-0.51 0.864-0.843 1.28l1.405 1.405c-0.416 0.52-0.885 0.989-1.405 1.405l-1.405-1.405c-0.416 0.333-0.843 0.614-1.28 0.843l0.78 1.842c-0.624 0.333-1.238 0.593-1.842 0.781l-0.78-1.842c-0.5 0.125-0.999 0.218-1.499 0.281v1.998c-0.375 0.042-0.708 0.062-0.999 0.062s-0.624-0.021-0.999-0.062v-1.998c-0.5-0.062-0.999-0.156-1.499-0.281l-0.749 1.842c-0.624-0.187-1.249-0.447-1.873-0.781l0.78-1.842c-0.437-0.229-0.853-0.51-1.249-0.843l-1.436 1.405c-0.52-0.416-0.989-0.885-1.405-1.405l1.405-1.405c-0.312-0.416-0.593-0.843-0.843-1.28l-1.842 0.78c-0.333-0.624-0.593-1.238-0.78-1.842l1.873-0.78c-0.146-0.5-0.25-0.999-0.312-1.499h-1.998c-0.042-0.375-0.062-0.708-0.062-0.999s0.021-0.624 0.062-0.999h1.998c0.062-0.5 0.166-0.999 0.312-1.499l-1.873-0.78c0.187-0.604 0.447-1.218 0.78-1.842l1.842 0.78c0.25-0.437 0.531-0.864 0.843-1.28l-1.405-1.405c0.416-0.52 0.885-0.989 1.405-1.405l1.436 1.405c0.395-0.333 0.812-0.614 1.249-0.843l-0.78-1.873c0.624-0.312 1.249-0.562 1.873-0.749l0.749 1.842c0.5-0.146 0.999-0.239 1.499-0.281v-1.998c0.375-0.042 0.708-0.062 0.999-0.062s0.624 0.021 0.999 0.062v1.998c0.5 0.042 0.999 0.135 1.499 0.281l0.78-1.842c0.604 0.187 1.218 0.437 1.842 0.749l-0.78 1.873c0.437 0.25 0.864 0.531 1.28 0.843l1.405-1.405c0.521 0.416 0.989 0.885 1.405 1.405l-1.405 1.405c0.333 0.416 0.614 0.843 0.843 1.28l1.873-0.78c0.312 0.624 0.562 1.238 0.749 1.842l-1.842 0.78c0.125 0.5 0.219 0.999 0.281 1.499h1.998zM20.982 16.016c-1.374 0-2.55 0.489-3.528 1.467s-1.467 2.154-1.467 3.528c0 1.374 0.489 2.55 1.467 3.528s2.154 1.467 3.528 1.467c1.374 0 2.55-0.489 3.528-1.467s1.467-2.154 1.467-3.528c0-1.374-0.489-2.55-1.467-3.528s-2.154-1.467-3.528-1.467zM13.957 9.335l-0.375 0.968c-0.062 0.125-0.161 0.219-0.297 0.281s-0.265 0.062-0.39 0l-1.78-0.718c-0.354 0.499-0.78 0.916-1.28 1.249l0.749 1.78c0.062 0.146 0.062 0.281 0 0.406s-0.156 0.219-0.281 0.281l-0.968 0.406c-0.125 0.062-0.255 0.062-0.39 0s-0.234-0.156-0.297-0.281l-0.749-1.78c-0.333 0.062-0.635 0.094-0.905 0.094-0.25 0-0.541-0.031-0.874-0.094l-0.749 1.78c-0.042 0.125-0.13 0.219-0.265 0.281s-0.276 0.062-0.421 0l-0.937-0.406c-0.146-0.042-0.245-0.13-0.297-0.265s-0.057-0.276-0.016-0.421l0.749-1.748c-0.499-0.354-0.926-0.78-1.28-1.28l-1.78 0.749c-0.125 0.042-0.255 0.036-0.39-0.016s-0.234-0.14-0.297-0.265l-0.375-0.968c-0.062-0.146-0.068-0.286-0.016-0.421s0.151-0.224 0.297-0.265l1.748-0.749c-0.062-0.333-0.094-0.635-0.094-0.905 0-0.25 0.031-0.552 0.094-0.905l-1.78-0.718c-0.125-0.062-0.213-0.156-0.265-0.281s-0.057-0.26-0.016-0.406l0.406-0.968c0.062-0.125 0.156-0.219 0.281-0.281s0.26-0.062 0.406 0l1.78 0.718c0.333-0.499 0.749-0.916 1.249-1.249l-0.718-1.78c-0.062-0.146-0.068-0.281-0.016-0.406s0.151-0.219 0.297-0.281l0.968-0.406c0.125-0.062 0.255-0.062 0.39 0s0.234 0.156 0.297 0.281l0.718 1.78c0.333-0.062 0.635-0.094 0.905-0.094s0.572 0.031 0.905 0.094l0.718-1.78c0.062-0.146 0.161-0.245 0.297-0.297s0.265-0.047 0.39 0.016l0.968 0.406c0.146 0.042 0.245 0.13 0.297 0.265s0.047 0.265-0.016 0.39l-0.718 1.78c0.499 0.354 0.926 0.78 1.28 1.28l1.748-0.749c0.146-0.042 0.286-0.036 0.421 0.016s0.224 0.14 0.265 0.265l0.406 0.968c0.062 0.146 0.068 0.286 0.016 0.421s-0.151 0.224-0.297 0.265l-1.78 0.749c0.062 0.333 0.094 0.635 0.094 0.905s-0.031 0.572-0.094 0.905l1.78 0.718c0.146 0.062 0.245 0.156 0.297 0.281s0.047 0.26-0.016 0.406zM7.011 4.027c-0.822 0-1.53 0.291-2.123 0.874s-0.89 1.29-0.89 2.123c0 0.832 0.297 1.54 0.89 2.123s1.301 0.874 2.123 0.874c0.822 0 1.525-0.291 2.107-0.874s0.874-1.29 0.874-2.123c0-0.833-0.291-1.54-0.874-2.123s-1.285-0.874-2.107-0.874z"></path>
</symbol>

<symbol id="icon-adv-speed" viewBox="0 0 32 32">
<path fill="#fe9e45" style="fill: var(--color3, #fe9e45)" d="M31.682 0.594c-0.013-0.063-0.043-0.12-0.088-0.166s-0.101-0.078-0.163-0.093c-4.144-1.013-13.719 2.597-18.907 7.783-0.925 0.918-1.769 1.915-2.521 2.979-1.6-0.142-3.2-0.023-4.563 0.571-3.847 1.693-4.967 6.111-5.279 8.012-0.018 0.104-0.011 0.211 0.019 0.312s0.084 0.194 0.156 0.27c0.072 0.077 0.162 0.136 0.261 0.172s0.205 0.050 0.31 0.038l6.178-0.681c0.004 0.466 0.032 0.931 0.084 1.394 0.031 0.321 0.174 0.622 0.403 0.849l2.392 2.387c0.227 0.229 0.528 0.372 0.849 0.403 0.46 0.051 0.923 0.080 1.386 0.084l-0.678 6.17c-0.011 0.105 0.002 0.211 0.038 0.31s0.096 0.188 0.172 0.261c0.077 0.072 0.169 0.126 0.27 0.156s0.208 0.037 0.312 0.020c1.897-0.304 6.323-1.424 8.006-5.271 0.594-1.363 0.716-2.955 0.579-4.547 1.067-0.752 2.066-1.596 2.987-2.522 5.204-5.178 8.794-14.539 7.797-18.889zM18.694 13.306c-0.475-0.475-0.799-1.080-0.93-1.739s-0.064-1.342 0.193-1.963c0.257-0.621 0.692-1.151 1.251-1.525s1.215-0.573 1.887-0.573c0.672 0 1.328 0.199 1.887 0.573s0.994 0.904 1.251 1.525c0.257 0.621 0.324 1.304 0.193 1.963s-0.455 1.264-0.93 1.739c-0.315 0.316-0.689 0.566-1.101 0.737s-0.854 0.259-1.299 0.259c-0.446 0-0.888-0.088-1.299-0.259s-0.786-0.421-1.101-0.737z"></path>
</symbol>

<symbol id="icon-btn-hero" viewBox="0 0 32 32">
<path fill="#fff" style="fill: var(--color2, #fff)" d="M20 22.667c-0.264 0-0.522 0.078-0.741 0.225s-0.39 0.355-0.491 0.598c-0.101 0.244-0.127 0.512-0.076 0.77s0.178 0.496 0.365 0.683c0.186 0.187 0.424 0.313 0.683 0.365s0.527 0.025 0.77-0.076 0.452-0.272 0.598-0.491c0.146-0.219 0.225-0.477 0.225-0.741 0-0.354-0.14-0.693-0.391-0.943s-0.589-0.391-0.943-0.391zM12 22.667h-4c-0.354 0-0.693 0.14-0.943 0.391s-0.391 0.589-0.391 0.943 0.14 0.693 0.391 0.943c0.25 0.25 0.589 0.391 0.943 0.391h4c0.354 0 0.693-0.14 0.943-0.391s0.391-0.589 0.391-0.943-0.14-0.693-0.391-0.943c-0.25-0.25-0.589-0.391-0.943-0.391zM24 22.667c-0.264 0-0.522 0.078-0.741 0.225s-0.39 0.355-0.491 0.598c-0.101 0.244-0.127 0.512-0.076 0.77s0.178 0.496 0.365 0.683c0.186 0.187 0.424 0.313 0.683 0.365s0.527 0.025 0.77-0.076 0.452-0.272 0.598-0.491c0.146-0.219 0.225-0.477 0.225-0.741 0-0.354-0.14-0.693-0.391-0.943s-0.589-0.391-0.943-0.391zM20 14.667c-0.264 0-0.522 0.078-0.741 0.225s-0.39 0.355-0.491 0.598c-0.101 0.244-0.127 0.512-0.076 0.77s0.178 0.496 0.365 0.683 0.424 0.313 0.683 0.365c0.259 0.051 0.527 0.025 0.77-0.076s0.452-0.272 0.598-0.491c0.146-0.219 0.225-0.477 0.225-0.741 0-0.354-0.14-0.693-0.391-0.943s-0.589-0.391-0.943-0.391zM12 14.667h-4c-0.354 0-0.693 0.14-0.943 0.391s-0.391 0.589-0.391 0.943 0.14 0.693 0.391 0.943c0.25 0.25 0.589 0.391 0.943 0.391h4c0.354 0 0.693-0.14 0.943-0.391s0.391-0.589 0.391-0.943-0.14-0.693-0.391-0.943c-0.25-0.25-0.589-0.391-0.943-0.391zM24 6.667c-0.264 0-0.522 0.078-0.741 0.225s-0.39 0.355-0.491 0.598c-0.101 0.244-0.127 0.512-0.076 0.77s0.178 0.496 0.365 0.683c0.186 0.186 0.424 0.313 0.683 0.365s0.527 0.025 0.77-0.076 0.452-0.272 0.598-0.491c0.146-0.219 0.225-0.477 0.225-0.741 0-0.354-0.14-0.693-0.391-0.943s-0.589-0.391-0.943-0.391zM24 14.667c-0.264 0-0.522 0.078-0.741 0.225s-0.39 0.355-0.491 0.598c-0.101 0.244-0.127 0.512-0.076 0.77s0.178 0.496 0.365 0.683c0.186 0.186 0.424 0.313 0.683 0.365s0.527 0.025 0.77-0.076 0.452-0.272 0.598-0.491c0.146-0.219 0.225-0.477 0.225-0.741 0-0.354-0.14-0.693-0.391-0.943s-0.589-0.391-0.943-0.391zM29.333 6.667c0-1.061-0.421-2.078-1.172-2.828s-1.768-1.172-2.828-1.172h-18.667c-1.061 0-2.078 0.421-2.828 1.172s-1.172 1.768-1.172 2.828v2.667c0.006 0.987 0.376 1.937 1.040 2.667-0.664 0.73-1.034 1.68-1.040 2.667v2.667c0.006 0.987 0.376 1.936 1.040 2.667-0.664 0.73-1.034 1.68-1.040 2.667v2.667c0 1.061 0.421 2.078 1.172 2.828s1.768 1.172 2.828 1.172h18.667c1.061 0 2.078-0.421 2.828-1.172s1.172-1.768 1.172-2.828v-2.667c-0.006-0.987-0.376-1.936-1.040-2.667 0.664-0.73 1.034-1.68 1.040-2.667v-2.667c-0.006-0.987-0.376-1.937-1.040-2.667 0.664-0.73 1.034-1.68 1.040-2.667v-2.667zM26.667 25.333c0 0.354-0.14 0.693-0.391 0.943s-0.589 0.391-0.943 0.391h-18.667c-0.354 0-0.693-0.14-0.943-0.391s-0.391-0.589-0.391-0.943v-2.667c0-0.354 0.14-0.693 0.391-0.943s0.589-0.391 0.943-0.391h18.667c0.354 0 0.693 0.14 0.943 0.391s0.391 0.589 0.391 0.943v2.667zM26.667 17.333c0 0.354-0.14 0.693-0.391 0.943s-0.589 0.391-0.943 0.391h-18.667c-0.354 0-0.693-0.14-0.943-0.391s-0.391-0.589-0.391-0.943v-2.667c0-0.354 0.14-0.693 0.391-0.943s0.589-0.391 0.943-0.391h18.667c0.354 0 0.693 0.14 0.943 0.391s0.391 0.589 0.391 0.943v2.667zM26.667 9.333c0 0.354-0.14 0.693-0.391 0.943s-0.589 0.391-0.943 0.391h-18.667c-0.354 0-0.693-0.14-0.943-0.391s-0.391-0.589-0.391-0.943v-2.667c0-0.354 0.14-0.693 0.391-0.943s0.589-0.391 0.943-0.391h18.667c0.354 0 0.693 0.14 0.943 0.391s0.391 0.589 0.391 0.943v2.667zM20 6.667c-0.264 0-0.522 0.078-0.741 0.225s-0.39 0.355-0.491 0.598c-0.101 0.244-0.127 0.512-0.076 0.77s0.178 0.496 0.365 0.683 0.424 0.313 0.683 0.365c0.259 0.051 0.527 0.025 0.77-0.076s0.452-0.272 0.598-0.491c0.146-0.219 0.225-0.477 0.225-0.741 0-0.354-0.14-0.693-0.391-0.943s-0.589-0.391-0.943-0.391zM12 6.667h-4c-0.354 0-0.693 0.14-0.943 0.391s-0.391 0.589-0.391 0.943c0 0.354 0.14 0.693 0.391 0.943s0.589 0.391 0.943 0.391h4c0.354 0 0.693-0.14 0.943-0.391s0.391-0.589 0.391-0.943-0.14-0.693-0.391-0.943c-0.25-0.25-0.589-0.391-0.943-0.391z"></path>
</symbol>

<symbol id="icon-hero-power" viewBox="0 0 25 32">
<path fill="#fff" style="fill: var(--color2, #fff)" d="M24.275 0h-14.669l-9.344 16h9.344l-8 16 21.331-20h-10.669l12.006-12z"></path>
</symbol>

<symbol id="icon-hero-safety" viewBox="0 0 26 32">
<path fill="#fff" style="fill: var(--color2, #fff)" d="M26.261 14.551c0 8.043-5.565 15.565-13.043 17.391-7.478-1.826-13.043-9.348-13.043-17.391v-8.696l13.043-5.797 13.043 5.797v8.696zM13.217 29.043c5.435-1.449 10.145-7.913 10.145-14.174v-7.13l-10.145-4.522-10.145 4.522v7.13c0 6.261 4.71 12.725 10.145 14.174zM10.319 23.246l-5.797-5.797 2.043-2.043 3.754 3.739 9.551-9.551 2.043 2.058z"></path>
</symbol>

<symbol id="icon-hero-anonim" viewBox="0 0 33 32">
<path fill="#fff" style="fill: var(--color2, #fff)" d="M12.557 0.211c-1.153 0-2.164 0.592-2.879 1.357-0.714 0.766-1.229 1.722-1.686 2.755-0.699 1.592-1.197 3.362-1.645 5.017-1.429 0.416-2.642 0.934-3.618 1.562-1.141 0.736-2.097 1.753-2.097 3.125 0 1.192 0.73 2.149 1.645 2.837 0.782 0.587 1.742 1.075 2.879 1.48 0.066 0.303 0.164 0.612 0.287 0.905-1.109 0.626-2.868 1.84-4.563 4.153l-0.782 1.111 1.111 0.78 4.316 2.96-1.766 3.537h25.329l-1.768-3.537 4.318-2.96 1.109-0.78-0.78-1.111c-1.697-2.313-3.454-3.526-4.566-4.153 0.125-0.293 0.222-0.601 0.289-0.905 1.136-0.405 2.096-0.895 2.878-1.48 0.914-0.688 1.645-1.645 1.645-2.837 0-1.372-0.957-2.389-2.097-3.125-0.976-0.628-2.189-1.146-3.618-1.563-0.493-1.716-1.038-3.514-1.726-5.097-0.447-1.024-0.941-1.964-1.645-2.714s-1.707-1.316-2.838-1.316c-0.766 0-1.346 0.211-1.974 0.37-0.626 0.159-1.259 0.288-1.891 0.288-1.263 0-2.324-0.658-3.866-0.658zM12.557 2.842c0.272 0 1.891 0.658 3.865 0.658 0.987 0 1.866-0.2 2.55-0.37 0.683-0.171 1.203-0.288 1.316-0.288 0.303 0 0.529 0.097 0.904 0.493 0.375 0.395 0.817 1.111 1.192 1.974 0.714 1.634 1.259 3.866 1.851 5.921 0-0.005 0.071-0.062-0.124 0.041-0.329 0.18-1.018 0.412-1.851 0.534-1.67 0.253-3.947 0.247-5.838 0.247-1.882 0-4.163-0.026-5.84-0.288-0.837-0.128-1.516-0.355-1.85-0.534-0.103-0.057-0.138-0.036-0.165-0.041v-0.041c0.005-0.011-0.005-0.032 0-0.042l0.041-0.041c0.098-0.177 0.155-0.374 0.166-0.576v-0.040c0.472-1.749 1.001-3.599 1.645-5.059 0.384-0.878 0.801-1.592 1.192-2.013 0.391-0.422 0.658-0.536 0.946-0.536zM6.141 12.176c0.299 0.617 0.824 1.111 1.358 1.397 0.803 0.426 1.721 0.628 2.713 0.782 1.984 0.308 4.308 0.329 6.209 0.329 1.892 0 4.22 0.011 6.209-0.288 0.997-0.149 1.907-0.343 2.713-0.782 0.539-0.292 1.064-0.812 1.358-1.438 0.812 0.288 1.495 0.596 1.974 0.904 0.766 0.493 0.904 0.859 0.904 0.946 0 0.078-0.066 0.329-0.617 0.741-0.55 0.411-1.495 0.888-2.713 1.274-2.437 0.776-5.942 1.275-9.828 1.275s-7.391-0.499-9.828-1.275c-1.218-0.386-2.163-0.863-2.713-1.274-0.551-0.412-0.617-0.663-0.617-0.741 0-0.087 0.103-0.416 0.863-0.905 0.479-0.308 1.183-0.642 2.016-0.945h-0.001zM9.554 19.372c0.432 0.071 0.859 0.189 1.316 0.246 0.171 1.157 1.070 2.174 2.508 2.262 1.111 0.066 2.359-0.458 2.468-1.933h1.151c0.108 1.475 1.355 2 2.467 1.933 1.438-0.088 2.338-1.105 2.508-2.262 0.457-0.057 0.884-0.175 1.316-0.247l-0.124 0.822c-0.407 2.164-1.372 4.168-2.591 5.553-1.218 1.38-2.646 2.116-4.153 2.096-1.547-0.021-2.945-0.766-4.153-2.138s-2.158-3.336-2.591-5.511l-0.124-0.821zM25.632 21.263c0.488 0.288 1.774 1.132 3.249 2.755l-3.989 2.754-0.945 0.618 0.493 1.026 0.37 0.741h-4.153c0.7-0.479 1.335-1.045 1.891-1.686 1.45-1.645 2.421-3.799 2.96-6.128 0.046-0.025 0.083-0.055 0.124-0.082zM7.17 21.304c0.051 0.032 0.113 0.053 0.164 0.083 0.566 2.297 1.532 4.425 2.961 6.043 0.591 0.674 1.279 1.25 2.014 1.728h-4.276l0.37-0.741 0.493-1.026-0.946-0.618-3.987-2.754c1.392-1.537 2.662-2.386 3.207-2.714z"></path>
</symbol>

<symbol id="icon-logo" viewBox="0 0 106 32">
<path fill="#fff" style="fill: var(--color2, #fff)" d="M2.667 0h26.667c1.473 0 2.667 1.194 2.667 2.667v26.667c0 1.473-1.194 2.667-2.667 2.667h-26.667c-1.473 0-2.667-1.194-2.667-2.667v-26.667c0-1.473 1.194-2.667 2.667-2.667z"></path>
<path fill="#481c03" style="fill: var(--color8, #481c03)" d="M21.519 15.558c0.802 0.273 1.425 0.717 1.869 1.331s0.666 1.382 0.666 2.304c0 1.809-0.7 3.2-2.099 4.173-1.382 0.956-3.277 1.434-5.683 1.434h-8.627l3.584-17.92h7.936c1.809 0 3.2 0.341 4.173 1.024 0.99 0.666 1.485 1.638 1.485 2.918 0 1.161-0.307 2.15-0.922 2.97-0.597 0.802-1.391 1.391-2.381 1.766zM13.353 8.954l-1.152 5.734h5.248c1.451 0 2.594-0.29 3.43-0.87 0.853-0.597 1.28-1.459 1.28-2.586 0-0.768-0.307-1.34-0.922-1.715-0.597-0.375-1.468-0.563-2.611-0.563h-5.274zM16.45 22.726c1.621 0 2.867-0.299 3.738-0.896 0.887-0.614 1.331-1.485 1.331-2.611 0-0.887-0.316-1.519-0.947-1.894-0.614-0.375-1.545-0.563-2.79-0.563h-5.99l-1.178 5.965h5.837z"></path>
<path fill="#fe9e45" style="fill: var(--color3, #fe9e45)" d="M26.075 16.428l-0.964-0.429 0.052-0.079c0.111-0.168 0.201-0.365 0.27-0.59s0.103-0.444 0.103-0.66c0-0.209-0.026-0.353-0.071-0.443-0.022-0.044-0.047-0.072-0.073-0.089s-0.056-0.026-0.095-0.026c-0.040 0-0.072 0.011-0.098 0.030s-0.053 0.053-0.075 0.106l-0.001 0.003h-0c-0.052 0.111-0.108 0.298-0.168 0.566-0 0-0 0-0 0l-0.078-0.017 1.198 1.629zM26.075 16.428l0.038-0.054M26.075 16.428l0.038-0.054M26.113 16.374c0.138-0.197 0.245-0.449 0.325-0.754s0.12-0.62 0.12-0.944c0-0.381-0.057-0.71-0.174-0.984v0l-0-0.001c-0.12-0.272-0.282-0.481-0.487-0.622-0.204-0.14-0.433-0.21-0.684-0.21-0.287 0-0.522 0.077-0.698 0.239-0.17 0.15-0.293 0.331-0.368 0.541-0.077 0.199-0.147 0.45-0.21 0.75v0c-0.056 0.264-0.109 0.45-0.157 0.561-0.022 0.051-0.048 0.083-0.073 0.103-0.024 0.019-0.053 0.028-0.089 0.028-0.073 0-0.133-0.032-0.184-0.114v-0l-0.001-0.002c-0.054-0.081-0.087-0.222-0.087-0.437 0-0.335 0.096-0.684 0.293-1.048l0.042-0.078-0.969-0.402-0.035 0.060c-0.117 0.198-0.203 0.427-0.261 0.683-0.061 0.256-0.092 0.516-0.092 0.78 0 0.385 0.057 0.715 0.174 0.989l0 0M26.113 16.374l-3.616-0.86M22.496 15.514c0.117 0.269 0.279 0.476 0.488 0.617l-0.488-0.617zM22.511 20.339l-0.112-0.048v1.272l2.427 1.033-2.427 1.011v1.373l4.080-1.743v-1.198l-3.968-1.701zM25.275 17.434v-0l-0-0.001c-0.125-0.273-0.302-0.487-0.533-0.638s-0.503-0.226-0.811-0.226c-0.308 0-0.58 0.074-0.811 0.226-0.234 0.151-0.412 0.365-0.533 0.639-0.125 0.274-0.186 0.593-0.186 0.957v1.872h4.080v-1.269h-1.025v-0.603c0-0.363-0.059-0.683-0.18-0.956zM23.93 17.849c0.164 0 0.282 0.051 0.365 0.146 0.080 0.096 0.126 0.245 0.126 0.463v0.536h-0.988v-0.536c0-0.218 0.048-0.367 0.132-0.463s0.201-0.146 0.365-0.146z"></path>
<path fill="#fff" style="fill: var(--color2, #fff)" d="M49.552 15.776c0.64 0.203 1.141 0.544 1.504 1.024 0.363 0.469 0.544 1.051 0.544 1.744 0 0.981-0.384 1.739-1.152 2.272-0.757 0.523-1.867 0.784-3.328 0.784h-5.792v-11.2h5.472c1.365 0 2.411 0.261 3.136 0.784 0.736 0.523 1.104 1.232 1.104 2.128 0 0.544-0.133 1.029-0.4 1.456-0.256 0.427-0.619 0.763-1.088 1.008zM43.904 12.352v2.64h2.576c0.64 0 1.125-0.112 1.456-0.336s0.496-0.555 0.496-0.992c0-0.437-0.165-0.763-0.496-0.976-0.331-0.224-0.816-0.336-1.456-0.336h-2.576zM46.928 19.648c0.683 0 1.195-0.112 1.536-0.336 0.352-0.224 0.528-0.571 0.528-1.040 0-0.928-0.688-1.392-2.064-1.392h-3.024v2.768h3.024z"></path>
<path fill="#fff" style="fill: var(--color2, #fff)" d="M62.234 19.52v2.080h-8.672v-11.2h8.464v2.080h-5.888v2.432h5.2v2.016h-5.2v2.592h6.096z"></path>
<path fill="#fff" style="fill: var(--color2, #fff)" d="M66.617 12.512h-3.584v-2.112h9.76v2.112h-3.584v9.088h-2.592v-9.088z"></path>
<path fill="#fe9e45" style="fill: var(--color3, #fe9e45)" d="M84.896 10.4l-4.848 11.2h-2.56l-4.832-11.2h2.8l3.408 8 3.456-8h2.576z"></path>
<path fill="#fe9e45" style="fill: var(--color3, #fe9e45)" d="M90.679 10.4c0.992 0 1.851 0.165 2.576 0.496 0.736 0.331 1.301 0.8 1.696 1.408s0.592 1.328 0.592 2.16c0 0.821-0.197 1.541-0.592 2.16-0.395 0.608-0.96 1.077-1.696 1.408-0.725 0.32-1.584 0.48-2.576 0.48h-2.256v3.088h-2.592v-11.2h4.848zM90.535 16.4c0.779 0 1.371-0.165 1.776-0.496 0.405-0.341 0.608-0.821 0.608-1.44 0-0.629-0.203-1.109-0.608-1.44-0.405-0.341-0.997-0.512-1.776-0.512h-2.112v3.888h2.112z"></path>
<path fill="#fe9e45" style="fill: var(--color3, #fe9e45)" d="M101.23 21.792c-0.885 0-1.744-0.117-2.576-0.352-0.821-0.245-1.483-0.56-1.984-0.944l0.88-1.952c0.48 0.352 1.051 0.635 1.712 0.848s1.323 0.32 1.984 0.32c0.736 0 1.28-0.107 1.632-0.32 0.352-0.224 0.528-0.517 0.528-0.88 0-0.267-0.107-0.485-0.32-0.656-0.203-0.181-0.469-0.325-0.8-0.432-0.32-0.107-0.757-0.224-1.312-0.352-0.853-0.203-1.552-0.405-2.096-0.608s-1.013-0.528-1.408-0.976c-0.384-0.448-0.576-1.045-0.576-1.792 0-0.651 0.176-1.237 0.528-1.76 0.352-0.533 0.88-0.955 1.584-1.264 0.715-0.309 1.584-0.464 2.608-0.464 0.715 0 1.413 0.085 2.096 0.256s1.28 0.416 1.792 0.736l-0.8 1.968c-1.035-0.587-2.069-0.88-3.104-0.88-0.725 0-1.264 0.117-1.616 0.352-0.341 0.235-0.512 0.544-0.512 0.928s0.197 0.672 0.592 0.864c0.405 0.181 1.019 0.363 1.84 0.544 0.853 0.203 1.552 0.405 2.096 0.608s1.008 0.523 1.392 0.96c0.395 0.437 0.592 1.029 0.592 1.776 0 0.64-0.181 1.227-0.544 1.76-0.352 0.523-0.885 0.939-1.6 1.248s-1.584 0.464-2.608 0.464z"></path>
</symbol>
</defs>
</svg>
